<?xml version="1.0" encoding="UTF-8" standalone="no"?>
<svg
   xmlns:dc="http://purl.org/dc/elements/1.1/"
   xmlns:cc="http://creativecommons.org/ns#"
   xmlns:rdf="http://www.w3.org/1999/02/22-rdf-syntax-ns#"
   xmlns:svg="http://www.w3.org/2000/svg"
   xmlns="http://www.w3.org/2000/svg"
   xmlns:sodipodi="http://sodipodi.sourceforge.net/DTD/sodipodi-0.dtd"
   xmlns:inkscape="http://www.inkscape.org/namespaces/inkscape"
   width="800px"
   height="800px"
   viewBox="0 0 512 512"
   version="1.1"
   id="svg875"
   sodipodi:docname="editor.svg"
   inkscape:version="1.0.1 (3bc2e813f5, 2020-09-07)">
  <metadata
     id="metadata881">
    <rdf:RDF>
      <cc:Work
         rdf:about="">
        <dc:format>image/svg+xml</dc:format>
        <dc:type
           rdf:resource="http://purl.org/dc/dcmitype/StillImage" />
        <dc:title>ionicons-v5-h</dc:title>
      </cc:Work>
    </rdf:RDF>
  </metadata>
  <defs
     id="defs879" />
  <sodipodi:namedview
     pagecolor="#ffffff"
     bordercolor="#666666"
     borderopacity="1"
     objecttolerance="10"
     gridtolerance="10"
     guidetolerance="10"
     inkscape:pageopacity="0"
     inkscape:pageshadow="2"
     inkscape:window-width="2560"
     inkscape:window-height="1377"
     id="namedview877"
     showgrid="false"
     inkscape:pagecheckerboard="true"
     inkscape:zoom="1.26"
     inkscape:cx="400"
     inkscape:cy="400"
     inkscape:window-x="1912"
     inkscape:window-y="-8"
     inkscape:window-maximized="1"
     inkscape:current-layer="svg875" />
  <title
     id="title869">ionicons-v5-h</title>
  <path
     d="M393.87,190a32.1,32.1,0,0,1-45.25,0l-26.57-26.57a32.09,32.09,0,0,1,0-45.26L382.19,58a1,1,0,0,0-.3-1.64c-38.82-16.64-89.15-8.16-121.11,23.57-30.58,30.35-32.32,76-21.12,115.84a31.93,31.93,0,0,1-9.06,32.08L64,380a48.17,48.17,0,1,0,68,68L285.86,281a31.93,31.93,0,0,1,31.6-9.13C357,282.46,402,280.47,432.18,250.68c32.49-32,39.5-88.56,23.75-120.93a1,1,0,0,0-1.6-.26Z"
     style="fill:none;stroke:#ffffff;stroke-linecap:round;stroke-miterlimit:10;stroke-width:32px;fill-opacity:1;stroke-opacity:1"
     id="path871" />
  <circle
     cx="96"
     cy="416"
     r="16"
     id="circle873"
     style="fill:#ffffff;fill-opacity:1;stroke:none;stroke-opacity:1" />
</svg>
