<?xml version="1.0" encoding="UTF-8" standalone="no"?>
<svg
   xmlns:dc="http://purl.org/dc/elements/1.1/"
   xmlns:cc="http://creativecommons.org/ns#"
   xmlns:rdf="http://www.w3.org/1999/02/22-rdf-syntax-ns#"
   xmlns:svg="http://www.w3.org/2000/svg"
   xmlns="http://www.w3.org/2000/svg"
   xmlns:sodipodi="http://sodipodi.sourceforge.net/DTD/sodipodi-0.dtd"
   xmlns:inkscape="http://www.inkscape.org/namespaces/inkscape"
   version="1.1"
   id="Uploaded to svgrepo.com"
   width="800px"
   height="800px"
   viewBox="0 0 32 32"
   xml:space="preserve"
   sodipodi:docname="tuto.svg"
   inkscape:version="1.0.1 (3bc2e813f5, 2020-09-07)"><metadata
   id="metadata853"><rdf:RDF><cc:Work
       rdf:about=""><dc:format>image/svg+xml</dc:format><dc:type
         rdf:resource="http://purl.org/dc/dcmitype/StillImage" /><dc:title></dc:title></cc:Work></rdf:RDF></metadata><defs
   id="defs851" /><sodipodi:namedview
   pagecolor="#ffffff"
   bordercolor="#666666"
   borderopacity="1"
   objecttolerance="10"
   gridtolerance="10"
   guidetolerance="10"
   inkscape:pageopacity="0"
   inkscape:pageshadow="2"
   inkscape:window-width="2560"
   inkscape:window-height="1377"
   id="namedview849"
   showgrid="false"
   inkscape:pagecheckerboard="true"
   inkscape:zoom="1.1025"
   inkscape:cx="400"
   inkscape:cy="400"
   inkscape:window-x="1912"
   inkscape:window-y="-8"
   inkscape:window-maximized="1"
   inkscape:current-layer="Uploaded to svgrepo.com" />
<style
   type="text/css"
   id="style844">
	.stone_een{fill:#0B1719;}
	.st0{fill:#0B1719;}
</style>
<path
   class="stone_een"
   d="M30,22v3c0,0.552-0.448,1-1,1h-1c-0.552,0-1-0.448-1-1v-3c0-0.552,0.448-1,1-1v-7.539l-11.198-0.896  C16.621,12.822,16.337,13,16,13c-0.552,0-1-0.448-1-1c0-0.552,0.448-1,1-1c0.396,0,0.732,0.235,0.894,0.57l11.186,0.895  c0.516,0.041,0.92,0.479,0.92,0.997V21C29.552,21,30,21.448,30,22z M16,19.725c-0.547,0-1.094-0.111-1.603-0.334L8,16.592v2.227  c0,1.136,0.642,2.175,1.658,2.683l0,0C11.655,22.501,13.827,23,16,23s4.345-0.499,6.341-1.497l0,0C23.358,20.995,24,19.956,24,18.82  v-2.227l-6.397,2.799C17.094,19.614,16.547,19.725,16,19.725z M29.906,11.084L17.202,5.526C16.819,5.358,16.41,5.275,16,5.275  c-0.41,0-0.819,0.084-1.202,0.252L2.094,11.084c-0.799,0.35-0.799,1.483,0,1.832l12.703,5.559c0.765,0.334,1.641,0.334,2.405,0  l9.416-4.121l-9.438-0.755C16.843,13.858,16.434,14,16,14c-1.103,0-2-0.897-2-2c0-1.103,0.897-2,2-2  c0.552,0,1.062,0.224,1.431,0.609l10.729,0.858c0.842,0.067,1.525,0.666,1.751,1.445C30.704,12.561,30.703,11.433,29.906,11.084z"
   id="path846"
   style="fill:#ffffff;fill-opacity:1" />
</svg>
